<?xml version="1.0" encoding="UTF-8"?>
<svg width="39px" height="31px" viewBox="0 0 39 31" version="1.1" xmlns="http://www.w3.org/2000/svg" xmlns:xlink="http://www.w3.org/1999/xlink">
    <!-- Generator: Sketch 61.1 (89650) - https://sketch.com -->
    <title>语音识别</title>
    <desc>Created with Sketch.</desc>
    <defs>
        <polygon id="path-1" points="0.0785641043 0.110027135 1.64565541 0.110027135 1.64565541 7.06709623 0.0785641043 7.06709623"></polygon>
        <polygon id="path-3" points="0 0.110027135 1.56709308 0.110027135 1.56709308 7.06709623 0 7.06709623"></polygon>
        <polygon id="path-5" points="0.140916176 0.123981171 13.4241702 0.123981171 13.4241702 22.6057509 0.140916176 22.6057509"></polygon>
    </defs>
    <g id="页面-1" stroke="none" stroke-width="1" fill="none" fill-rule="evenodd">
        <g id="ai中台002" transform="translate(-798.000000, -688.000000)">
            <g id="语音识别" transform="translate(798.000000, 688.000000)">
                <path d="M31.1074532,11.625 C30.6451076,11.625 30.2667112,12.0269043 30.2667112,12.5180059 L30.2667112,18.4816992 C30.2667112,18.9729483 30.6451076,19.375 31.1074532,19.375 C31.5697989,19.375 31.9481952,18.9729483 31.9481952,18.4816992 L31.9481952,12.5180059 C31.9481952,12.0269043 31.5697989,11.625 31.1074532,11.625" id="Fill-1" fill="#FEFEFE"></path>
                <g id="编组" transform="translate(36.432152, 12.178571)">
                    <mask id="mask-2" fill="white">
                        <use xlink:href="#path-1"></use>
                    </mask>
                    <g id="Clip-4"></g>
                    <path d="M0.862006283,0.110027135 C0.431158356,0.110027135 0.0785641043,0.536650194 0.0785641043,1.05792193 L0.0785641043,6.11951432 C0.0785641043,6.64078606 0.431158356,7.06709623 0.862006283,7.06709623 C1.29298356,7.06709623 1.64570715,6.64078606 1.64570715,6.11951432 L1.64570715,1.05792193 C1.64570715,0.536650194 1.29298356,0.110027135 0.862006283,0.110027135" id="Fill-3" fill="#FEFEFE" mask="url(#mask-2)"></path>
                </g>
                <path d="M33.909775,9.41071429 C33.4474988,9.41071429 33.0691845,9.81956657 33.0691845,10.319125 L33.0691845,21.2344464 C33.0691845,21.7340049 33.4474988,22.1428571 33.909775,22.1428571 C34.37219,22.1428571 34.7506431,21.7340049 34.7506431,21.2344464 L34.7506431,10.319125 C34.7542514,9.81956657 34.37219,9.41071429 33.909775,9.41071429" id="Fill-5" fill="#FEFEFE"></path>
                <g id="编组" transform="translate(0.000000, 12.178571)">
                    <mask id="mask-4" fill="white">
                        <use xlink:href="#path-3"></use>
                    </mask>
                    <g id="Clip-8"></g>
                    <path d="M0.783623262,0.110027135 C0.352645989,0.110027135 -7.76069519e-05,0.536650194 -7.76069519e-05,1.05792193 L-7.76069519e-05,6.11951432 C-7.76069519e-05,6.64078606 0.352645989,7.06709623 0.783623262,7.06709623 C1.21460053,7.06709623 1.56706544,6.64078606 1.56706544,6.11951432 L1.56706544,1.05792193 C1.5706871,0.536650194 1.2179635,0.110027135 0.783623262,0.110027135" id="Fill-7" fill="#FEFEFE" mask="url(#mask-4)"></path>
                </g>
                <path d="M4.20357111,9.41071429 C3.74128793,9.41071429 3.36296791,9.81956657 3.36296791,10.319125 L3.36296791,21.2344464 C3.36296791,21.7340049 3.74128793,22.1428571 4.20357111,22.1428571 C4.66599308,22.1428571 5.04445187,21.7340049 5.04445187,21.2344464 L5.04445187,10.319125 C5.04445187,9.81956657 4.66599308,9.41071429 4.20357111,9.41071429" id="Fill-9" fill="#FEFEFE"></path>
                <path d="M7.00630725,11.625 C6.54389336,11.625 6.16544118,12.0269043 6.16544118,12.5180059 L6.16544118,18.4816992 C6.16544118,18.9729483 6.54389336,19.375 7.00630725,19.375 C7.46858236,19.375 7.84689576,18.9729483 7.84689576,18.4816992 L7.84689576,12.5180059 C7.85078159,12.0269043 7.46858236,11.625 7.00630725,11.625" id="Fill-11" fill="#FEFEFE"></path>
                <path d="M28.5852273,15.9301978 C28.5852273,15.6787657 28.5722399,15.4315926 28.550803,15.1886785 C28.5077726,14.7364658 28.1156485,14.3928571 27.6459133,14.3928571 L27.5596961,14.3928571 C27.0254936,14.3928571 26.6203822,14.845222 26.663569,15.3646658 C26.7025311,15.8631188 26.6893872,16.3738926 26.6247634,16.8974432 C26.1766216,20.4159714 23.2079953,23.2346575 19.5799871,23.5864799 C14.8491495,24.0429516 10.863598,20.441069 10.863598,15.9343047 C10.863598,15.7583174 10.8679793,15.5824823 10.8808102,15.4066472 C10.9196157,14.8619537 10.5018299,14.3928571 9.94149621,14.3928571 C9.45470532,14.3928571 9.03676304,14.7531975 8.99795746,15.2264009 C8.97652051,15.4566902 8.96791444,15.6912385 8.96791444,15.9301978 C8.96791444,20.8849159 12.8542614,24.9560471 17.8265384,25.4210368 L17.8265384,29.1569252 L12.7638193,29.1569252 C12.2380664,29.1569252 11.8157428,29.5717197 11.8157428,30.0785387 C11.8157428,30.5896166 12.2426041,31 12.7638193,31 L24.7849411,31 C25.310694,31 25.7328611,30.5853576 25.7328611,30.0785387 C25.7328611,29.5674607 25.3063128,29.1569252 24.7849411,29.1569252 L19.722222,29.1569252 L19.722222,25.4210368 C24.6944991,24.9560471 28.5852273,20.8849159 28.5852273,15.9301978" id="Fill-13" fill="#FEFEFE"></path>
                <g id="编组" transform="translate(12.000000, 0.000000)">
                    <mask id="mask-6" fill="white">
                        <use xlink:href="#path-5"></use>
                    </mask>
                    <g id="Clip-16"></g>
                    <path d="M2.03590949,15.7355266 L11.5244844,15.7355266 L11.5244844,16.0458655 C11.5244844,18.6219873 9.38829586,20.7309024 6.7781635,20.7309024 C4.16803115,20.7309024 2.03184265,18.6219873 2.03184265,16.0458655 L2.03184265,15.7355266 L2.03590949,15.7355266 Z M2.03590949,6.67965157 C2.03590949,4.10322093 4.17241083,1.99446024 6.78238676,1.99446024 C9.39251912,1.99446024 11.5287076,4.10322093 11.5287076,6.67965157 L11.5287076,13.8605237 L2.03590949,13.8605237 L2.03590949,6.67965157 Z M6.78238676,22.6057509 C10.4347263,22.6057509 13.4241702,19.6552152 13.4241702,16.0500342 L13.4241702,6.67965157 C13.4241702,3.07447057 10.4347263,0.123934852 6.78238676,0.123934852 C3.12989078,0.123934852 0.140916176,3.07447057 0.140916176,6.67965157 L0.140916176,16.0458655 C0.140916176,19.6552152 3.12989078,22.6057509 6.78238676,22.6057509 L6.78238676,22.6057509 Z" id="Fill-15" fill="#FEFEFE" mask="url(#mask-6)"></path>
                </g>
            </g>
        </g>
    </g>
</svg>